<svg width="18" height="15" viewBox="0 0 18 15" fill="none" xmlns="http://www.w3.org/2000/svg">
<path d="M18 4.85714H15.8571V7H15.1429V4.85714H13V4.14286H15.1429V2H15.8571V4.14286H18V4.85714Z" fill="#FF820D"/>
<path d="M7.5 7.5C8.88071 7.5 10 6.38071 10 5C10 3.61929 8.88071 2.5 7.5 2.5C6.11929 2.5 5 3.61929 5 5C5 6.38071 6.11929 7.5 7.5 7.5Z" fill="#FF820D"/>
<path d="M12.5 11.875V12.5C12.5 12.6658 12.4342 12.8247 12.3169 12.9419C12.1997 13.0592 12.0408 13.125 11.875 13.125H3.125C2.95924 13.125 2.80027 13.0592 2.68306 12.9419C2.56585 12.8247 2.5 12.6658 2.5 12.5V11.875C2.5 10.8804 2.89509 9.92661 3.59835 9.22335C4.30161 8.52009 5.25544 8.125 6.25 8.125H8.75C9.74456 8.125 10.6984 8.52009 11.4017 9.22335C12.1049 9.92661 12.5 10.8804 12.5 11.875Z" fill="#FF820D"/>
</svg>
