<svg width="31" height="31" viewBox="0 0 31 31" fill="none" xmlns="http://www.w3.org/2000/svg">
<circle opacity="0.5" cx="15.5" cy="15.5" r="15.5" fill="black"/>
<path d="M16.83 15.5L21.485 10.845C21.6584 10.668 21.755 10.4298 21.7538 10.182C21.7525 9.93418 21.6535 9.6969 21.4783 9.52168C21.3031 9.34647 21.0658 9.24748 20.818 9.24623C20.5702 9.24498 20.332 9.34156 20.155 9.515L15.5 14.17L10.845 9.515C10.668 9.34156 10.4298 9.24498 10.182 9.24623C9.93418 9.24748 9.6969 9.34647 9.52168 9.52168C9.34647 9.6969 9.24748 9.93418 9.24623 10.182C9.24498 10.4298 9.34156 10.668 9.515 10.845L14.17 15.5L9.515 20.155C9.34156 20.332 9.24498 20.5702 9.24623 20.818C9.24748 21.0658 9.34647 21.3031 9.52168 21.4783C9.6969 21.6535 9.93418 21.7525 10.182 21.7538C10.4298 21.755 10.668 21.6584 10.845 21.485L15.5 16.83L20.155 21.485C20.332 21.6584 20.5702 21.755 20.818 21.7538C21.0658 21.7525 21.3031 21.6535 21.4783 21.4783C21.6535 21.3031 21.7525 21.0658 21.7538 20.818C21.755 20.5702 21.6584 20.332 21.485 20.155L16.83 15.5Z" fill="white"/>
</svg>
