<svg width="17" height="17" viewBox="0 0 17 17" fill="none" xmlns="http://www.w3.org/2000/svg">
<path d="M4.85941 8.55852C5.62138 10.1321 6.89377 11.4012 8.46925 12.1591C8.58547 12.2141 8.71401 12.238 8.84222 12.2282C8.97044 12.2185 9.09391 12.1755 9.20048 12.1036L11.5145 10.5578C11.6167 10.4885 11.7349 10.4462 11.8579 10.4348C11.9809 10.4235 12.1048 10.4435 12.2179 10.493L16.5498 12.3535C16.6978 12.4151 16.8215 12.5237 16.9018 12.6625C16.982 12.8013 17.0145 12.9627 16.994 13.1217C16.8567 14.1933 16.3337 15.1782 15.5227 15.892C14.7118 16.6059 13.6685 16.9998 12.5882 17C9.24959 17 6.04773 15.6737 3.68699 13.313C1.32625 10.9523 0 7.75041 0 4.41182C0.000243493 3.33146 0.394134 2.2882 1.10797 1.47725C1.8218 0.666312 2.80666 0.143256 3.87827 0.00596004C4.03732 -0.0144709 4.19868 0.0179501 4.3375 0.0982306C4.47632 0.178511 4.5849 0.302199 4.64652 0.450249L6.50698 4.79132C6.55536 4.90271 6.5756 5.0243 6.56591 5.14536C6.55623 5.26642 6.51692 5.38323 6.45144 5.48552L4.90569 7.83655C4.83687 7.94288 4.79648 8.06509 4.78838 8.1915C4.78027 8.3179 4.80473 8.44426 4.85941 8.55852Z" fill="#F20007"/>
</svg>
