<svg width="21" height="21" viewBox="0 0 21 21" fill="none" xmlns="http://www.w3.org/2000/svg">
<path d="M18.375 1.75H5.25C4.78587 1.75 4.34075 1.93437 4.01256 2.26256C3.68437 2.59075 3.5 3.03587 3.5 3.5V6.125H1.75V7.875H3.5V9.625H1.75V11.375H3.5V13.125H1.75V14.875H3.5V17.5C3.5 17.9641 3.68437 18.4092 4.01256 18.7374C4.34075 19.0656 4.78587 19.25 5.25 19.25H18.375C18.6071 19.25 18.8296 19.1578 18.9937 18.9937C19.1578 18.8296 19.25 18.6071 19.25 18.375V2.625C19.25 2.39294 19.1578 2.17038 18.9937 2.00628C18.8296 1.84219 18.6071 1.75 18.375 1.75ZM11.375 4.37413C12.817 4.37413 14 5.55625 14 6.99913C13.9975 7.69462 13.7201 8.36092 13.2284 8.85279C12.7367 9.34466 12.0705 9.62223 11.375 9.625C9.93388 9.625 8.75 8.44112 8.75 6.99913C8.75 5.55625 9.93388 4.37413 11.375 4.37413ZM16.625 15.75H6.125V15.0938C6.125 13.1521 8.49187 11.1562 11.375 11.1562C14.2581 11.1562 16.625 13.1521 16.625 15.0938V15.75Z" fill="#FF820D"/>
</svg>
