<svg width="16" height="16" viewBox="0 0 16 16" fill="none" xmlns="http://www.w3.org/2000/svg">
<g opacity="0.5" clip-path="url(#clip0_1_1896)">
<path d="M8.00008 0.666656C6.54969 0.666656 5.13186 1.09675 3.9259 1.90255C2.71994 2.70834 1.78001 3.85365 1.22497 5.19364C0.669925 6.53364 0.524701 8.00812 0.807659 9.43065C1.09062 10.8532 1.78905 12.1599 2.81464 13.1854C3.84022 14.211 5.1469 14.9095 6.56942 15.1924C7.99195 15.4754 9.46644 15.3301 10.8064 14.7751C12.1464 14.2201 13.2917 13.2801 14.0975 12.0742C14.9033 10.8682 15.3334 9.45039 15.3334 7.99999C15.3334 6.05507 14.5608 4.18981 13.1855 2.81454C11.8103 1.43927 9.94501 0.666656 8.00008 0.666656ZM11.1381 10.1953C11.2018 10.2568 11.2525 10.3304 11.2875 10.4117C11.3224 10.4931 11.3408 10.5805 11.3416 10.6691C11.3424 10.7576 11.3255 10.8454 11.292 10.9273C11.2584 11.0092 11.2089 11.0837 11.1463 11.1463C11.0838 11.2088 11.0093 11.2584 10.9274 11.2919C10.8455 11.3254 10.7577 11.3423 10.6692 11.3415C10.5806 11.3407 10.4932 11.3223 10.4118 11.2874C10.3305 11.2524 10.2569 11.2017 10.1954 11.138L8.00008 8.94266L5.80475 11.138C5.74325 11.2017 5.66969 11.2524 5.58835 11.2874C5.50702 11.3223 5.41954 11.3407 5.33102 11.3415C5.2425 11.3423 5.15471 11.3254 5.07278 11.2919C4.99085 11.2584 4.91642 11.2088 4.85382 11.1463C4.79123 11.0837 4.74172 11.0092 4.7082 10.9273C4.67468 10.8454 4.65782 10.7576 4.65858 10.6691C4.65935 10.5805 4.67774 10.4931 4.71268 10.4117C4.74762 10.3304 4.79841 10.2568 4.86208 10.1953L7.05742 7.99999L4.86208 5.80466C4.79841 5.74316 4.74762 5.6696 4.71268 5.58826C4.67774 5.50692 4.65935 5.41944 4.65858 5.33092C4.65782 5.2424 4.67468 5.15462 4.7082 5.07269C4.74172 4.99076 4.79123 4.91632 4.85382 4.85373C4.91642 4.79113 4.99085 4.74163 5.07278 4.70811C5.15471 4.67459 5.2425 4.65772 5.33102 4.65849C5.41954 4.65926 5.50702 4.67765 5.58835 4.71259C5.66969 4.74753 5.74325 4.79832 5.80475 4.86199L8.00008 7.05732L10.1954 4.86199C10.2569 4.79832 10.3305 4.74753 10.4118 4.71259C10.4932 4.67765 10.5806 4.65926 10.6692 4.65849C10.7577 4.65772 10.8455 4.67459 10.9274 4.70811C11.0093 4.74163 11.0838 4.79113 11.1463 4.85373C11.2089 4.91632 11.2584 4.99076 11.292 5.07269C11.3255 5.15462 11.3424 5.2424 11.3416 5.33092C11.3408 5.41944 11.3224 5.50692 11.2875 5.58826C11.2525 5.6696 11.2018 5.74316 11.1381 5.80466L8.94275 7.99999L11.1381 10.1953Z" fill="#232323"/>
</g>
<defs>
<clipPath id="clip0_1_1896">
<rect width="16" height="16" fill="white"/>
</clipPath>
</defs>
</svg>
