<svg width="12" height="12" viewBox="0 0 12 12" fill="none" xmlns="http://www.w3.org/2000/svg">
<path d="M6 0.5C4.91221 0.5 3.84884 0.822569 2.94437 1.42692C2.0399 2.03126 1.33495 2.89025 0.918665 3.89524C0.502383 4.90023 0.393465 6.0061 0.605683 7.073C0.817902 8.13989 1.34173 9.1199 2.11092 9.88909C2.8801 10.6583 3.86011 11.1821 4.92701 11.3943C5.9939 11.6065 7.09977 11.4976 8.10476 11.0813C9.10976 10.6651 9.96874 9.96011 10.5731 9.05564C11.1774 8.15117 11.5 7.0878 11.5 6C11.5 4.54131 10.9205 3.14236 9.88909 2.11091C8.85764 1.07946 7.45869 0.5 6 0.5ZM8.3535 7.6465C8.40126 7.69262 8.43935 7.7478 8.46555 7.8088C8.49176 7.8698 8.50555 7.93541 8.50613 8.0018C8.50671 8.06819 8.49405 8.13403 8.46891 8.19548C8.44377 8.25692 8.40665 8.31275 8.3597 8.3597C8.31275 8.40664 8.25693 8.44377 8.19548 8.46891C8.13403 8.49405 8.06819 8.5067 8.0018 8.50613C7.93541 8.50555 7.8698 8.49176 7.8088 8.46555C7.7478 8.43935 7.69263 8.40126 7.6465 8.3535L6 6.707L4.3535 8.3535C4.30738 8.40126 4.25221 8.43935 4.1912 8.46555C4.1302 8.49176 4.06459 8.50555 3.9982 8.50613C3.93181 8.5067 3.86597 8.49405 3.80453 8.46891C3.74308 8.44377 3.68725 8.40664 3.6403 8.3597C3.59336 8.31275 3.55623 8.25692 3.53109 8.19548C3.50595 8.13403 3.4933 8.06819 3.49388 8.0018C3.49445 7.93541 3.50825 7.8698 3.53445 7.8088C3.56066 7.7478 3.59875 7.69262 3.6465 7.6465L5.293 6L3.6465 4.3535C3.59875 4.30738 3.56066 4.2522 3.53445 4.1912C3.50825 4.1302 3.49445 4.06459 3.49388 3.9982C3.4933 3.93181 3.50595 3.86597 3.53109 3.80452C3.55623 3.74307 3.59336 3.68725 3.6403 3.6403C3.68725 3.59336 3.74308 3.55623 3.80453 3.53109C3.86597 3.50595 3.93181 3.4933 3.9982 3.49387C4.06459 3.49445 4.1302 3.50824 4.1912 3.53445C4.25221 3.56065 4.30738 3.59875 4.3535 3.6465L6 5.293L7.6465 3.6465C7.69263 3.59875 7.7478 3.56065 7.8088 3.53445C7.8698 3.50824 7.93541 3.49445 8.0018 3.49387C8.06819 3.4933 8.13403 3.50595 8.19548 3.53109C8.25693 3.55623 8.31275 3.59336 8.3597 3.6403C8.40665 3.68725 8.44377 3.74307 8.46891 3.80452C8.49405 3.86597 8.50671 3.93181 8.50613 3.9982C8.50555 4.06459 8.49176 4.1302 8.46555 4.1912C8.43935 4.2522 8.40126 4.30738 8.3535 4.3535L6.707 6L8.3535 7.6465Z" fill="#FF820D"/>
</svg>
