<svg width="10" height="10" viewBox="0 0 10 10" fill="none" xmlns="http://www.w3.org/2000/svg">
<path d="M2.20837 7.79168C2.29171 7.87501 2.37504 7.91668 2.50004 7.91668C2.62504 7.91668 2.70837 7.87501 2.79171 7.79168L5.00004 5.58334L7.20837 7.79168C7.29171 7.87501 7.41671 7.91668 7.50004 7.91668C7.58337 7.91668 7.70837 7.87501 7.79171 7.79168C7.95837 7.62501 7.95837 7.37501 7.79171 7.20834L5.58337 5.00001L7.79171 2.79168C7.95837 2.62501 7.95837 2.37501 7.79171 2.20834C7.62504 2.04168 7.37504 2.04168 7.20837 2.20834L5.00004 4.41668L2.79171 2.20834C2.62504 2.04168 2.37504 2.04168 2.20837 2.20834C2.04171 2.37501 2.04171 2.62501 2.20837 2.79168L4.41671 5.00001L2.20837 7.20834C2.04171 7.37501 2.04171 7.62501 2.20837 7.79168Z" fill="white"/>
</svg>
