<svg width="12" height="12" viewBox="0 0 12 12" fill="none" xmlns="http://www.w3.org/2000/svg">
<path d="M11.1036 5.99999L11.7476 4.88699C11.825 4.75308 11.846 4.59392 11.8061 4.44449C11.7662 4.29507 11.6685 4.16761 11.5347 4.09016L10.4205 3.44616V2.16283C10.4205 2.00812 10.359 1.85974 10.2496 1.75035C10.1402 1.64095 9.99187 1.57949 9.83716 1.57949H8.55441L7.911 0.46591C7.83329 0.332277 7.70608 0.234621 7.55691 0.194076C7.48292 0.174019 7.40569 0.168847 7.32969 0.17886C7.25369 0.188874 7.18043 0.213873 7.11416 0.25241L6 0.89641L4.88583 0.251826C4.75185 0.174475 4.59263 0.153513 4.4432 0.193552C4.29376 0.23359 4.16635 0.33135 4.089 0.465326L3.445 1.57949H2.16225C2.00754 1.57949 1.85916 1.64095 1.74977 1.75035C1.64037 1.85974 1.57891 2.00812 1.57891 2.16283V3.44558L0.464746 4.08958C0.398265 4.12782 0.339995 4.17882 0.293284 4.23965C0.246573 4.30047 0.212341 4.36993 0.192556 4.44403C0.172771 4.51813 0.167823 4.59541 0.177995 4.67143C0.188167 4.74744 0.213259 4.8207 0.251829 4.88699L0.895829 5.99999L0.251829 7.11299C0.174823 7.24703 0.15393 7.40607 0.193705 7.55545C0.23348 7.70482 0.330699 7.83242 0.464163 7.91041L1.57833 8.55441V9.83716C1.57833 9.99187 1.63979 10.1402 1.74918 10.2496C1.85858 10.359 2.00695 10.4205 2.16166 10.4205H3.445L4.089 11.5347C4.14064 11.6229 4.21438 11.6963 4.30295 11.7474C4.39152 11.7985 4.49189 11.8257 4.59416 11.8263C4.69566 11.8263 4.79658 11.7995 4.88641 11.7476L5.99941 11.1036L7.11358 11.7476C7.24752 11.8248 7.40664 11.8458 7.55602 11.8059C7.7054 11.766 7.83285 11.6684 7.91041 11.5347L8.55383 10.4205H9.83658C9.99129 10.4205 10.1397 10.359 10.2491 10.2496C10.3585 10.1402 10.4199 9.99187 10.4199 9.83716V8.55441L11.5341 7.91041C11.6004 7.87206 11.6586 7.821 11.7052 7.76016C11.7519 7.69932 11.786 7.62988 11.8058 7.55583C11.8256 7.48177 11.8306 7.40454 11.8205 7.32856C11.8104 7.25257 11.7854 7.17932 11.747 7.11299L11.1036 5.99999ZM4.54108 3.07749C4.77322 3.07757 4.99582 3.16986 5.15992 3.33407C5.32401 3.49827 5.41616 3.72093 5.41608 3.95308C5.416 4.18522 5.32371 4.40782 5.15951 4.57192C4.9953 4.73601 4.77264 4.82815 4.5405 4.82808C4.30835 4.828 4.08575 4.73571 3.92166 4.5715C3.75756 4.4073 3.66542 4.18463 3.6655 3.95249C3.66557 3.72035 3.75787 3.49775 3.92207 3.33365C4.08627 3.16956 4.30894 3.07742 4.54108 3.07749ZM4.71608 8.67749L3.78275 7.97808L7.28275 3.31141L8.21608 4.01083L4.71608 8.67749ZM7.45775 8.91083C7.3428 8.91079 7.22899 8.88811 7.12281 8.84409C7.01663 8.80006 6.92016 8.73556 6.83891 8.65425C6.75766 8.57295 6.69321 8.47643 6.64926 8.37022C6.60531 8.26402 6.58271 8.15019 6.58275 8.03524C6.58278 7.9203 6.60546 7.80649 6.64949 7.7003C6.69351 7.59412 6.75801 7.49765 6.83932 7.4164C6.92062 7.33515 7.01714 7.27071 7.12335 7.22676C7.22956 7.18281 7.34338 7.1602 7.45833 7.16024C7.69047 7.16032 7.91307 7.25261 8.07717 7.41682C8.24126 7.58102 8.33341 7.80368 8.33333 8.03583C8.33325 8.26797 8.24096 8.49057 8.07676 8.65466C7.91255 8.81876 7.68989 8.9109 7.45775 8.91083Z" fill="#FF820D"/>
</svg>
