<svg width="11" height="11" viewBox="0 0 11 11" fill="none" xmlns="http://www.w3.org/2000/svg">
<path d="M10.2391 5.5L10.8371 4.4665C10.9089 4.34215 10.9285 4.19436 10.8914 4.0556C10.8543 3.91685 10.7637 3.7985 10.6394 3.72658L9.60478 3.12858V1.93691C9.60478 1.79325 9.54771 1.65548 9.44613 1.5539C9.34455 1.45231 9.20677 1.39525 9.06312 1.39525H7.87199L7.27453 0.361204C7.20238 0.237117 7.08426 0.146436 6.94574 0.108787C6.87704 0.0901625 6.80532 0.08536 6.73475 0.0946581C6.66418 0.103956 6.59615 0.12717 6.53462 0.162954L5.50003 0.760954L4.46545 0.162412C4.34104 0.0905859 4.19319 0.0711214 4.05443 0.1083C3.91567 0.145479 3.79736 0.236256 3.72553 0.360662L3.12753 1.39525H1.93641C1.79275 1.39525 1.65497 1.45231 1.55339 1.5539C1.45181 1.65548 1.39474 1.79325 1.39474 1.93691V3.12804L0.360156 3.72604C0.298424 3.76155 0.244316 3.8089 0.200941 3.86539C0.157567 3.92187 0.12578 3.98637 0.107409 4.05518C0.0890368 4.12398 0.0844416 4.19574 0.093887 4.26633C0.103332 4.33692 0.126632 4.40494 0.162448 4.4665L0.760448 5.5L0.162448 6.5335C0.0909418 6.65796 0.071541 6.80564 0.108475 6.94435C0.14541 7.08305 0.235684 7.20153 0.359615 7.27395L1.3942 7.87195V9.06308C1.3942 9.20674 1.45127 9.34451 1.55285 9.4461C1.65443 9.54768 1.79221 9.60474 1.93586 9.60474H3.12753L3.72553 10.6393C3.77349 10.7213 3.84196 10.7894 3.9242 10.8369C4.00645 10.8844 4.09964 10.9096 4.19462 10.9102C4.28887 10.9102 4.38257 10.8852 4.46599 10.837L5.49949 10.239L6.53407 10.837C6.65845 10.9088 6.8062 10.9282 6.94491 10.8912C7.08362 10.8541 7.20197 10.7635 7.27399 10.6393L7.87145 9.60474H9.06257C9.20623 9.60474 9.34401 9.54768 9.44559 9.4461C9.54717 9.34451 9.60424 9.20674 9.60424 9.06308V7.87195L10.6388 7.27395C10.7005 7.23834 10.7545 7.19093 10.7977 7.13444C10.841 7.07794 10.8728 7.01347 10.8911 6.9447C10.9095 6.87593 10.9141 6.80422 10.9048 6.73366C10.8954 6.66311 10.8722 6.59509 10.8365 6.5335L10.2391 5.5ZM4.14532 2.78625C4.36088 2.78632 4.56759 2.87202 4.71996 3.02449C4.87233 3.17697 4.9579 3.38373 4.95782 3.59929C4.95775 3.81485 4.87205 4.02155 4.71958 4.17392C4.5671 4.3263 4.36034 4.41186 4.14478 4.41179C3.92922 4.41172 3.72252 4.32602 3.57015 4.17354C3.41777 4.02107 3.33221 3.81431 3.33228 3.59875C3.33235 3.38319 3.41805 3.17648 3.57053 3.02411C3.723 2.87174 3.92976 2.78617 4.14532 2.78625ZM4.30782 7.98625L3.44116 7.33679L6.69116 3.00345L7.55782 3.65291L4.30782 7.98625ZM6.85366 8.20291C6.74692 8.20288 6.64124 8.18182 6.54264 8.14094C6.44405 8.10006 6.35447 8.04016 6.27902 7.96467C6.20357 7.88917 6.14373 7.79955 6.10292 7.70093C6.06211 7.6023 6.04112 7.49661 6.04116 7.38987C6.04119 7.28314 6.06225 7.17745 6.10313 7.07886C6.14401 6.98026 6.20391 6.89068 6.2794 6.81523C6.3549 6.73979 6.44452 6.67995 6.54314 6.63914C6.64177 6.59832 6.74746 6.57734 6.8542 6.57737C7.06976 6.57744 7.27646 6.66314 7.42884 6.81562C7.58121 6.96809 7.66677 7.17485 7.6667 7.39041C7.66663 7.60597 7.58093 7.81268 7.42845 7.96505C7.27598 8.11742 7.06922 8.20298 6.85366 8.20291Z" fill="white"/>
</svg>
