<svg width="20" height="20" viewBox="0 0 20 20" fill="none" xmlns="http://www.w3.org/2000/svg">
<path d="M13.67 14.13H6.33001C6.23896 14.1399 6.15483 14.1832 6.09387 14.2515C6.03291 14.3199 5.99947 14.4084 6.00001 14.5C6.00001 14.6008 6.04004 14.6974 6.11131 14.7687C6.18257 14.84 6.27922 14.88 6.38001 14.88H13.72C13.8208 14.88 13.9174 14.84 13.9887 14.7687C14.06 14.6974 14.1 14.6008 14.1 14.5C14.1007 14.4459 14.0896 14.3923 14.0674 14.343C14.0451 14.2937 14.0124 14.2499 13.9714 14.2146C13.9304 14.1794 13.8821 14.1535 13.8301 14.1389C13.778 14.1242 13.7234 14.1212 13.67 14.13Z" fill="#FF820D"/>
<path d="M9.71025 13.0601C9.74444 13.0937 9.78515 13.1199 9.82988 13.1371C9.8746 13.1543 9.92238 13.1622 9.97025 13.1601C10.0165 13.1608 10.0623 13.1523 10.1053 13.1351C10.1482 13.118 10.1872 13.0925 10.2203 13.0601L13.5003 10.0001C13.5356 9.96566 13.5637 9.92445 13.5829 9.87894C13.6021 9.83343 13.612 9.78453 13.612 9.73513C13.612 9.68574 13.6021 9.63684 13.5829 9.59133C13.5637 9.54582 13.5356 9.50461 13.5003 9.47014C13.4293 9.40111 13.3342 9.36249 13.2353 9.36249C13.1363 9.36249 13.0412 9.40111 12.9703 9.47014L10.3503 11.9201V5.34014C10.3453 5.24987 10.3065 5.16478 10.2416 5.10179C10.1768 5.0388 10.0906 5.00251 10.0003 5.00014C9.95083 4.9988 9.90164 5.00738 9.85559 5.02538C9.80954 5.04337 9.76756 5.07041 9.73214 5.10491C9.69671 5.1394 9.66856 5.18064 9.64934 5.22619C9.63013 5.27175 9.62024 5.32069 9.62025 5.37014V12.0001L7.00025 9.44013C6.92512 9.39028 6.83471 9.36877 6.74518 9.37944C6.65564 9.39012 6.57282 9.43228 6.51151 9.4984C6.45021 9.56451 6.41441 9.65028 6.41051 9.74036C6.40662 9.83044 6.43488 9.91897 6.49025 9.99013L9.71025 13.0601Z" fill="#FF820D"/>
</svg>
