<svg width="23" height="23" viewBox="0 0 23 23" fill="none" xmlns="http://www.w3.org/2000/svg">
<path d="M22.5221 5.75033C22.5221 5.49616 22.4212 5.2524 22.2414 5.07268C22.0617 4.89296 21.818 4.79199 21.5638 4.79199H11.5013C11.2471 4.79199 11.0034 4.89296 10.8237 5.07268C10.6439 5.2524 10.543 5.49616 10.543 5.75033C10.543 6.00449 10.6439 6.24825 10.8237 6.42797C11.0034 6.60769 11.2471 6.70866 11.5013 6.70866H21.5638C21.818 6.70866 22.0617 6.60769 22.2414 6.42797C22.4212 6.24825 22.5221 6.00449 22.5221 5.75033Z" fill="#FF820D"/>
<path d="M1.4388 6.70834H4.00234C4.22841 7.34775 4.67324 7.88666 5.25822 8.22982C5.8432 8.57298 6.53065 8.69829 7.19909 8.5836C7.86752 8.46892 8.47389 8.12162 8.91103 7.6031C9.34816 7.08457 9.58792 6.42821 9.58792 5.75001C9.58792 5.07181 9.34816 4.41544 8.91103 3.89692C8.47389 3.37839 7.86752 3.0311 7.19909 2.91641C6.53065 2.80173 5.8432 2.92704 5.25822 3.27019C4.67324 3.61335 4.22841 4.15226 4.00234 4.79167H1.4388C1.18464 4.79167 0.94088 4.89264 0.761158 5.07236C0.581436 5.25208 0.480469 5.49584 0.480469 5.75001C0.480469 6.00417 0.581436 6.24793 0.761158 6.42765C0.94088 6.60737 1.18464 6.70834 1.4388 6.70834ZM6.70964 4.79167C6.89918 4.79167 7.08446 4.84788 7.24206 4.95318C7.39965 5.05848 7.52249 5.20816 7.59502 5.38327C7.66755 5.55838 7.68653 5.75107 7.64955 5.93697C7.61258 6.12287 7.5213 6.29362 7.38728 6.42765C7.25325 6.56168 7.0825 6.65295 6.8966 6.68993C6.7107 6.7269 6.51801 6.70792 6.3429 6.63539C6.16778 6.56286 6.01811 6.44002 5.91281 6.28243C5.80751 6.12483 5.7513 5.93955 5.7513 5.75001C5.7513 5.49584 5.85227 5.25208 6.03199 5.07236C6.21171 4.89264 6.45547 4.79167 6.70964 4.79167Z" fill="#FF820D"/>
<path d="M21.5606 10.5417H18.0387C17.8126 9.90226 17.3678 9.36335 16.7828 9.02019C16.1978 8.67704 15.5104 8.55173 14.842 8.66641C14.1735 8.7811 13.5672 9.12839 13.13 9.64692C12.6929 10.1654 12.4531 10.8218 12.4531 11.5C12.4531 12.1782 12.6929 12.8346 13.13 13.3531C13.5672 13.8716 14.1735 14.2189 14.842 14.3336C15.5104 14.4483 16.1978 14.323 16.7828 13.9798C17.3678 13.6367 17.8126 13.0978 18.0387 12.4583H21.5606C21.8147 12.4583 22.0585 12.3574 22.2382 12.1776C22.4179 11.9979 22.5189 11.7542 22.5189 11.5C22.5189 11.2458 22.4179 11.0021 22.2382 10.8224C22.0585 10.6426 21.8147 10.5417 21.5606 10.5417ZM15.3314 12.4583C15.1419 12.4583 14.9566 12.4021 14.799 12.2968C14.6414 12.1915 14.5186 12.0419 14.446 11.8667C14.3735 11.6916 14.3545 11.4989 14.3915 11.313C14.4285 11.1271 14.5197 10.9564 14.6538 10.8224C14.7878 10.6883 14.9585 10.5971 15.1444 10.5601C15.3303 10.5231 15.523 10.5421 15.6981 10.6146C15.8733 10.6872 16.0229 10.81 16.1282 10.9676C16.2335 11.1252 16.2897 11.3105 16.2897 11.5C16.2897 11.7542 16.1888 11.9979 16.0091 12.1776C15.8293 12.3574 15.5856 12.4583 15.3314 12.4583Z" fill="#FF820D"/>
<path d="M10.543 10.542H1.4388C1.18464 10.542 0.94088 10.643 0.761158 10.8227C0.581436 11.0024 0.480469 11.2462 0.480469 11.5003C0.480469 11.7545 0.581436 11.9982 0.761158 12.178C0.94088 12.3577 1.18464 12.4587 1.4388 12.4587H10.543C10.7971 12.4587 11.0409 12.3577 11.2206 12.178C11.4003 11.9982 11.5013 11.7545 11.5013 11.5003C11.5013 11.2462 11.4003 11.0024 11.2206 10.8227C11.0409 10.643 10.7971 10.542 10.543 10.542Z" fill="#FF820D"/>
<path d="M21.5612 16.292H13.4154C13.1612 16.292 12.9174 16.393 12.7377 16.5727C12.558 16.7524 12.457 16.9962 12.457 17.2503C12.457 17.5045 12.558 17.7482 12.7377 17.928C12.9174 18.1077 13.1612 18.2087 13.4154 18.2087H21.5612C21.8154 18.2087 22.0591 18.1077 22.2388 17.928C22.4186 17.7482 22.5195 17.5045 22.5195 17.2503C22.5195 16.9962 22.4186 16.7524 22.2388 16.5727C22.0591 16.393 21.8154 16.292 21.5612 16.292Z" fill="#FF820D"/>
<path d="M8.6263 14.375C8.03233 14.3757 7.45315 14.5603 6.96836 14.9035C6.48358 15.2467 6.117 15.7317 5.91901 16.2917H1.4388C1.18464 16.2917 0.94088 16.3926 0.761158 16.5724C0.581436 16.7521 0.480469 16.9958 0.480469 17.25C0.480469 17.5042 0.581436 17.7479 0.761158 17.9276C0.94088 18.1074 1.18464 18.2083 1.4388 18.2083H5.91901C6.09475 18.7054 6.40379 19.1446 6.81233 19.4778C7.22087 19.8111 7.71318 20.0256 8.23542 20.0979C8.75766 20.1701 9.28972 20.0974 9.77342 19.8877C10.2571 19.6779 10.6738 19.3392 10.978 18.9085C11.2821 18.4779 11.462 17.9719 11.4979 17.4459C11.5338 16.9199 11.4244 16.3942 11.1817 15.9262C10.9389 15.4582 10.5721 15.0659 10.1214 14.7924C9.67075 14.5188 9.15352 14.3744 8.6263 14.375ZM8.6263 18.2083C8.43676 18.2083 8.25148 18.1521 8.09388 18.0468C7.93628 17.9415 7.81345 17.7919 7.74092 17.6167C7.66838 17.4416 7.64941 17.2489 7.68638 17.063C7.72336 16.8771 7.81463 16.7064 7.94866 16.5724C8.08268 16.4383 8.25344 16.3471 8.43934 16.3101C8.62524 16.2731 8.81793 16.2921 8.99304 16.3646C9.16815 16.4372 9.31782 16.56 9.42313 16.7176C9.52843 16.8752 9.58463 17.0605 9.58463 17.25C9.58463 17.5042 9.48367 17.7479 9.30395 17.9276C9.12422 18.1074 8.88047 18.2083 8.6263 18.2083Z" fill="#FF820D"/>
</svg>
