<svg width="15" height="13" viewBox="0 0 15 13" fill="none" xmlns="http://www.w3.org/2000/svg">
<path d="M7.43301 13L7.18421 12.7823C1.52392 8.17943 0 6.5622 0 3.91866C0 1.74162 1.77272 0 3.91866 0C5.72249 0 6.7488 1.02631 7.43301 1.80382C8.11723 1.02631 9.14354 0 10.9474 0C13.1244 0 14.866 1.77272 14.866 3.91866C14.866 6.5622 13.3421 8.17943 7.68182 12.7823L7.43301 13ZM3.91866 0.80861C2.20813 0.80861 0.80861 2.20813 0.80861 3.91866C0.80861 6.18899 2.23923 7.68182 7.43301 11.9426C12.6268 7.68182 14.0574 6.18899 14.0574 3.91866C14.0574 2.20813 12.6579 0.80861 10.9474 0.80861C9.39235 0.80861 8.55263 1.74163 7.89952 2.48804L7.43301 3.01675L6.96651 2.48804C6.3134 1.74163 5.47368 0.80861 3.91866 0.80861Z" fill="black"/>
</svg>
