<svg width="15" height="15" viewBox="0 0 15 15" fill="none" xmlns="http://www.w3.org/2000/svg">
<path d="M3.06252 8.62176V13.1302C3.06252 13.2434 3.15439 13.3355 3.26783 13.3355H8.1065V9.25316H10.3795V13.3355H11.7316C11.8453 13.3355 11.9369 13.2434 11.9369 13.1302V8.62176L7.50229 4.20613L3.06252 8.62176ZM6.67096 11.1551H4.61994V9.2534H6.67096V11.1551Z" fill="#FF820D"/>
<path d="M12.8357 7.00059L7.49994 1.66504L4.98275 4.18199V3.07434C4.98275 2.81559 4.77275 2.60559 4.514 2.60559C4.25525 2.60559 4.04525 2.81559 4.04525 3.07434V5.11949L2.16393 7.00059C1.93494 7.22957 1.93494 7.60059 2.16393 7.82934C2.2783 7.94371 2.4283 8.0009 2.5783 8.0009C2.7283 8.0009 2.87807 7.94371 2.99268 7.82957L7.50018 3.32254L12.0072 7.82934C12.2362 8.05832 12.607 8.05832 12.8357 7.82934C13.0645 7.60035 13.0645 7.22934 12.8357 7.00059Z" fill="#FF820D"/>
</svg>
