<svg width="19" height="26" viewBox="0 0 19 26" fill="none" xmlns="http://www.w3.org/2000/svg">
<g clip-path="url(#clip0_1_458)">
<path d="M9.5 0C4.25372 0 0 4.36566 0 9.75C0 13.681 1.33445 14.7789 8.52526 25.477C8.99685 26.1762 10.0052 26.1762 10.4767 25.477C17.6641 14.7773 19 13.6805 19 9.75C19 4.36566 14.7448 0 9.5 0ZM9.5 13.7668C7.31648 13.7668 5.54167 11.9448 5.54167 9.7043C5.54167 7.46383 7.31797 5.6418 9.5 5.6418C11.682 5.6418 13.4583 7.46383 13.4583 9.7043C13.4583 11.9448 11.682 13.7668 9.5 13.7668Z" fill="#FF820D"/>
</g>
<defs>
<clipPath id="clip0_1_458">
<rect width="19" height="26" fill="white"/>
</clipPath>
</defs>
</svg>
