<svg width="19" height="19" viewBox="0 0 19 19" fill="none" xmlns="http://www.w3.org/2000/svg">
<path d="M4.15996 8.83507L4.15625 9.33975C4.15996 11.7741 5.86328 13.8151 8.16777 14.394C8.21602 14.3978 8.26426 14.4126 8.30879 14.4274C8.52773 14.5017 8.68359 14.6835 8.75781 14.9024V17.0808C8.75781 17.4853 9.08809 17.8118 9.5 17.8118H9.50371C9.91563 17.8118 10.2422 17.4853 10.2422 17.0808V14.8987C10.3164 14.6798 10.4686 14.5017 10.6875 14.4274C10.732 14.4126 10.7803 14.3978 10.8322 14.394C13.1367 13.8151 14.8438 11.7741 14.8438 9.33975V8.83507C14.8438 8.44913 14.5135 8.1337 14.1201 8.1337C13.7268 8.1337 13.3965 8.44542 13.3965 8.83507V9.33975C13.3965 10.3974 12.9697 11.3474 12.2609 12.0413C11.5484 12.7315 10.5799 13.162 9.49629 13.162C8.41269 13.162 7.45156 12.7353 6.74277 12.0413C6.03398 11.3474 5.60352 10.3937 5.60352 9.33975V8.83507C5.60352 8.44913 5.27695 8.1337 4.87988 8.1337C4.48652 8.1337 4.15996 8.44913 4.15996 8.83507Z" fill="#FF820D"/>
<path d="M6.64062 3.99668V9.33301C6.64062 10.8842 7.92832 12.1422 9.5166 12.1422C11.1049 12.1422 12.3926 10.8842 12.3926 9.33301V3.99668C12.3926 2.44551 11.1049 1.1875 9.5166 1.1875C7.92832 1.1875 6.64062 2.44551 6.64062 3.99668Z" fill="#FF820D"/>
</svg>
