<svg width="10" height="10" viewBox="0 0 10 10" fill="none" xmlns="http://www.w3.org/2000/svg">
<path d="M5.0013 0.416992C4.09481 0.416992 3.20867 0.6858 2.45494 1.18942C1.70122 1.69305 1.11376 2.40886 0.766856 3.24636C0.419955 4.08385 0.329189 5.00541 0.506038 5.89449C0.682887 6.78357 1.11941 7.60024 1.7604 8.24123C2.40139 8.88222 3.21806 9.31874 4.10714 9.49559C4.99622 9.67244 5.91778 9.58167 6.75527 9.23477C7.59276 8.88787 8.30858 8.30041 8.81221 7.54669C9.31583 6.79296 9.58464 5.90682 9.58464 5.00033C9.58464 3.78475 9.10175 2.61896 8.24221 1.75942C7.38267 0.899878 6.21688 0.416992 5.0013 0.416992ZM7.79589 5.29491L6.12922 6.96158C6.05064 7.03747 5.94539 7.07947 5.83614 7.07852C5.72689 7.07757 5.62238 7.03375 5.54513 6.9565C5.46788 6.87925 5.42406 6.77474 5.42311 6.66549C5.42216 6.55624 5.46415 6.45099 5.54005 6.37241L6.49547 5.41699H2.5013C2.3908 5.41699 2.28482 5.37309 2.20668 5.29495C2.12854 5.21681 2.08464 5.11083 2.08464 5.00033C2.08464 4.88982 2.12854 4.78384 2.20668 4.7057C2.28482 4.62756 2.3908 4.58366 2.5013 4.58366H6.49547L5.54005 3.62824C5.50026 3.58981 5.46852 3.54383 5.44668 3.49299C5.42484 3.44216 5.41335 3.38748 5.41287 3.33216C5.41239 3.27683 5.42293 3.22197 5.44388 3.17076C5.46483 3.11955 5.49577 3.07303 5.53489 3.03391C5.57401 2.99479 5.62053 2.96385 5.67174 2.9429C5.72295 2.92195 5.77781 2.91141 5.83314 2.91189C5.88846 2.91237 5.94314 2.92386 5.99397 2.9457C6.04481 2.96754 6.09078 2.99928 6.12922 3.03908L7.79589 4.70574C7.874 4.78388 7.91788 4.88984 7.91788 5.00033C7.91788 5.11081 7.874 5.21677 7.79589 5.29491Z" fill="#FF820D"/>
</svg>
