<svg width="17" height="17" viewBox="0 0 17 17" fill="none" xmlns="http://www.w3.org/2000/svg">
<g clip-path="url(#clip0_1_1538)">
<path d="M8.50001 5.66665C6.93459 5.66665 5.66668 6.93456 5.66668 8.49998C5.66668 10.0654 6.93459 11.3333 8.50001 11.3333C10.0654 11.3333 11.3333 10.0654 11.3333 8.49998C11.3333 6.93456 10.0654 5.66665 8.50001 5.66665ZM14.8325 7.79165C14.5067 4.8379 12.1621 2.49331 9.20834 2.16748V0.708313H7.79168V2.16748C4.83793 2.49331 2.49334 4.8379 2.16751 7.79165H0.708344V9.20831H2.16751C2.49334 12.1621 4.83793 14.5066 7.79168 14.8325V16.2916H9.20834V14.8325C12.1621 14.5066 14.5067 12.1621 14.8325 9.20831H16.2917V7.79165H14.8325ZM8.50001 13.4583C5.7623 13.4583 3.54168 11.2377 3.54168 8.49998C3.54168 5.76227 5.7623 3.54165 8.50001 3.54165C11.2377 3.54165 13.4583 5.76227 13.4583 8.49998C13.4583 11.2377 11.2377 13.4583 8.50001 13.4583Z" fill="#FF820D"/>
</g>
<defs>
<clipPath id="clip0_1_1538">
<rect width="17" height="17" fill="white"/>
</clipPath>
</defs>
</svg>
